<?xml version="1.0" encoding="utf-8"?>
<!-- Generator: Adobe Illustrator 21.0.0, SVG Export Plug-In . SVG Version: 6.00 Build 0)  -->
<svg version="1.1" id="Layer_1" xmlns="http://www.w3.org/2000/svg" xmlns:xlink="http://www.w3.org/1999/xlink" x="0px" y="0px"
	 viewBox="0 0 24 24" style="enable-background:new 0 0 24 24;" xml:space="preserve">
<style type="text/css">
	.st0{fill:#FFFFFF;}
</style>
<path class="st0" d="M16.1,3H7.9C5.2,3,3,5.2,3,7.9v8.3C3,18.8,5.2,21,7.9,21h8.3c2.7,0,4.9-2.2,4.9-4.9V7.9C21,5.2,18.8,3,16.1,3z
	 M19.9,16.1c0,2.1-1.7,3.8-3.8,3.8H7.9c-2.1,0-3.8-1.7-3.8-3.8V7.9c0-2.1,1.7-3.8,3.8-3.8h8.3c2.1,0,3.8,1.7,3.8,3.8V16.1z"/>
<path class="st0" d="M12,7.1c-2.7,0-4.9,2.2-4.9,4.9s2.2,4.9,4.9,4.9s4.9-2.2,4.9-4.9S14.7,7.1,12,7.1z M12,15.9
	c-2.1,0-3.9-1.7-3.9-3.9c0-2.1,1.7-3.9,3.9-3.9c2.1,0,3.9,1.7,3.9,3.9C15.9,14.1,14.1,15.9,12,15.9z"/>
<path class="st0" d="M17,5.3c-0.8,0-1.5,0.7-1.5,1.5c0,0.8,0.7,1.5,1.5,1.5s1.5-0.7,1.5-1.5S17.8,5.3,17,5.3z M17,7.2
	c-0.2,0-0.4-0.2-0.4-0.4c0-0.2,0.2-0.4,0.4-0.4c0.2,0,0.4,0.2,0.4,0.4C17.4,7,17.3,7.2,17,7.2z"/>
</svg>
