<?xml version="1.0" standalone="no"?>
<!DOCTYPE svg PUBLIC "-//W3C//DTD SVG 20010904//EN"
 "http://www.w3.org/TR/2001/REC-SVG-20010904/DTD/svg10.dtd">
<svg version="1.0" xmlns="http://www.w3.org/2000/svg"
 width="380.000000pt" height="380.000000pt" viewBox="0 0 380.000000 380.000000"
 preserveAspectRatio="xMidYMid meet">
<metadata>
Created by potrace 1.11, written by Peter Selinger 2001-2013
</metadata>
<g transform="translate(0.000000,380.000000) scale(0.100000,-0.100000)"
fill="#000000" stroke="none">
<path d="M55 3788 c-11 -6 -28 -21 -37 -32 -17 -20 -18 -87 -15 -1211 2 -655
6 -1206 10 -1225 3 -19 9 -55 12 -80 10 -79 56 -252 92 -342 184 -469 576
-747 1202 -852 84 -14 201 -29 259 -33 208 -15 674 -7 774 12 12 3 45 7 72 10
67 7 183 31 295 61 299 80 548 221 716 403 22 24 46 50 52 57 79 79 222 366
248 494 2 8 8 33 14 55 10 40 15 67 26 140 3 23 8 52 12 65 4 14 9 580 10
1258 l4 1232 -373 0 c-205 0 -383 -3 -395 -6 -12 -3 -30 -18 -39 -32 -16 -25
-17 -109 -19 -1177 -2 -632 -5 -1161 -8 -1175 -3 -14 -8 -47 -12 -75 -36 -269
-179 -481 -398 -589 -170 -84 -343 -117 -628 -120 -304 -4 -508 32 -688 121
-74 36 -111 63 -171 122 -137 134 -193 260 -236 526 -4 22 -8 567 -9 1210 -2
644 -4 1176 -4 1183 -1 17 -736 17 -766 0z"/>
</g>
</svg>
